<svg viewBox="0 0 700 700" xmlns="http://www.w3.org/2000/svg">
  <path transform="translate(-100 5) scale(1.2 1.2)" d="m569.55 129.39-299.44 101.94v246.88h-0.035156c0.21875 13.898-4.4883 27.43-13.297 38.188-12.438 15.367-29.512 26.297-48.672 31.16-19 5.3594-39.223 4.4297-57.648-2.6484-17.02-5.6562-30.059-19.48-34.711-36.801-4.6484-17.32-0.28906-35.816 11.609-49.234 12.445-15.344 29.52-26.246 48.672-31.078 18.996-5.3828 39.219-4.4805 57.656 2.5703 7.3867 2.9648 14.168 7.25 20.016 12.648v-318.24c-0.015625-3.7188 2.4727-6.9883 6.0664-7.9609l315.36-107.36c2.0625-0.69922 4.3164-0.55078 6.2656 0.41406 1.9492 0.96484 3.4336 2.668 4.1289 4.7305 0.28516 0.85156 0.42969 1.7461 0.42578 2.6484v389.68c-0.23047 13.324-4.9297 26.188-13.336 36.527-12.617 15.133-29.609 25.988-48.645 31.078s-39.176 4.168-57.664-2.6445c-16.781-6.0547-29.676-19.727-34.738-36.828-4.1328-17.328 0.1875-35.586 11.645-49.227 12.621-15.133 29.613-25.988 48.652-31.082 19.035-5.0898 39.18-4.1641 57.668 2.6484 7.3828 2.9258 14.164 7.1797 20.012 12.547z"/>
</svg>
