<?xml version="1.0" encoding="UTF-8"?>
<svg viewBox="150 10 400 550" xmlns="http://www.w3.org/2000/svg">
 <g>
  <path d="m478.71 46.781-82.32 26.879h-0.28125l-207.2 67.48 14.281 44.238 289.8-94.641zm11.199-11.199 18.762 57.68c0.74609 1.8711 0.65625 3.6406-0.28125 5.3203-0.93359 1.6797-2.3359 2.8008-4.1992 3.3594l-303.8 98.84-1.9609 0.28125c-1.4961 0-2.6094-0.18359-3.3594-0.55859-1.4961-0.75-2.6133-2.1523-3.3594-4.1992l-18.48-57.688c-0.74609-1.8633-0.64844-3.6328 0.28125-5.3125 0.93359-1.6875 2.3359-2.8008 4.1992-3.3672l96.602-31.633-8.1211-25.484c-0.55859-1.8633-0.46484-3.6328 0.28125-5.3125 0.93359-1.6875 2.3359-2.8008 4.1992-3.3672l110.6-35.836c1.8633-0.56641 3.6406-0.37109 5.3203 0.55859 1.6797 0.75 2.8008 2.0547 3.3594 3.9219l8.3984 25.199 82.879-26.879c1.8633-0.56641 3.6406-0.46875 5.3203 0.28125 1.6797 0.92969 2.8008 2.332 3.3594 4.1953zm-111.16 8.3984-97.16 31.359 6.4414 18.766 96.879-31.922zm23.242 229.04v218.12c0 1.8711-0.74609 3.5508-2.2383 5.0391-1.3047 1.3047-2.8945 1.9609-4.7617 1.9609-1.8633 0-3.6406-0.64844-5.3203-1.9609-1.3047-1.3047-1.9609-2.9844-1.9609-5.0391v-218.12c0-1.8633 0.65625-3.543 1.9609-5.0352 1.6797-1.3047 3.457-1.9648 5.3203-1.9648 1.8633 0 3.457 0.65625 4.7617 1.9648 1.4922 1.4922 2.2383 3.1719 2.2383 5.0352zm58.238-5.5977c1.3047-1.1133 2.9922-1.5859 5.0391-1.3984 2.0547 0.19141 3.6406 1.0312 4.7617 2.5195 1.3047 1.4961 1.7734 3.1758 1.3984 5.0391l-19.879 218.4c-0.18359 1.8633-0.93359 3.3594-2.2383 4.4805-1.3047 1.1211-2.8008 1.6797-4.4805 1.6797h-0.83984c-2.0547-0.18359-3.6406-1.0234-4.7617-2.5195-1.1211-1.4883-1.5859-3.168-1.3984-5.0352l19.879-218.4c0.19141-1.8672 1.0234-3.457 2.5195-4.7656zm65.238-41.16c1.4961 1.4961 2.0547 3.2695 1.6797 5.3203l-31.641 294c-0.18359 2.0508-1.0312 3.6328-2.5195 4.7617-1.3047 1.1211-2.8008 1.6797-4.4805 1.6797h-249.2c-1.8633 0-3.457-0.55859-4.7617-1.6797s-2.0547-2.7031-2.2383-4.7617l-31.922-294c-0.37109-2.0508 0.19141-3.832 1.6797-5.3203 1.6797-1.4961 3.543-2.2383 5.6016-2.2383h312.76c1.8711-0.003906 3.5508 0.74609 5.0391 2.2383zm-13.16 11.758h-297.08l30.52 279.72h236.32zm-241.92 34.168 19.602 218.4c0.375 1.8633-0.09375 3.5508-1.3984 5.0352-1.3047 1.5-2.9844 2.3359-5.0391 2.5195h-0.83984c-1.6797 0-3.1758-0.55859-4.4805-1.6797-1.3047-1.1211-2.0508-2.6133-2.2383-4.4805l-19.602-218.4c-0.18359-1.8633 0.28125-3.5508 1.3984-5.0391 1.3047-1.4961 2.8945-2.3281 4.7617-2.5195 2.0547-0.18359 3.832 0.375 5.3203 1.6875 1.4922 1.1094 2.332 2.6094 2.5156 4.4766zm57.68-4.2031c1.4961-1.3047 3.168-1.9648 5.0391-1.9648s3.457 0.65625 4.7617 1.9648c1.4961 1.4961 2.2383 3.168 2.2383 5.0352v218.12c0 1.8711-0.74609 3.5508-2.2383 5.0391-1.3047 1.3047-2.8945 1.9609-4.7617 1.9609-1.8633 0-3.543-0.64844-5.0391-1.9609-1.4961-1.3086-2.2383-2.9844-2.2383-5.0391v-218.12c0-1.8633 0.75-3.543 2.2383-5.0352z" fill-rule="evenodd"/>
 </g>
</svg>
