<svg viewBox="75 100 550 360" xmlns="http://www.w3.org/2000/svg">
 <g>
  <line x1="100" y1="130" x2="600" y2="130" stroke-width="24" stroke-linecap="round" stroke="black"/>
  <line x1="100" y1="430" x2="600" y2="430" stroke-width="24" stroke-linecap="round" stroke="black"/>
  <path d="m590.8 278.66h-31.875l-3.9375-11.352c-3.1094-8.9766-11.531-14.48-21.035-13.727-9.4688 0.76562-16.922 7.5781-18.555 16.934l-15.52 89.422-24.398-164c-1.4961-10.047-9.6328-17.242-19.789-17.484-10.039-0.19531-18.633 6.5391-20.609 16.508l-24.785 124.93-16.375-77.707c-2.0703-9.832-10.625-16.613-20.586-16.273-10.047 0.25391-18.16 7.3594-19.734 17.281l-21.223 133.59-24.875-209.77c-1.2266-10.316-9.6562-17.926-20.035-18.09-10.426-0.30859-19.059 7.168-20.609 17.445l-23.328 154.61-10.477-85.758c-1.2305-10.062-9.1602-17.461-19.285-17.992-10.199-0.49219-18.781 6.0039-21.055 15.883l-10.852 47.191-1.5195-7.9805c-1.6875-8.8633-8.5586-15.344-17.504-16.504-8.9492-1.1758-17.246 3.3477-21.141 11.492l-5.4258 11.344-27.074 0.003906c-6.1836 0-11.199 5.0195-11.199 11.199 0 6.1836 5.0195 11.199 11.199 11.199h28.727c7.5703 0 14.57-4.4141 17.832-11.238l3.6523-7.6367 2.1211 11.16c1.832 9.6328 9.9531 16.488 19.75 16.676 9.7383 0.19141 18.176-6.3555 20.379-15.91l10.461-45.473 10.852 88.816c1.2617 10.293 9.6992 17.871 20.07 18.016 10.348 0.125 19.02-7.1914 20.562-17.445l23.301-154.43 24.832 209.38c1.2227 10.277 9.6094 17.887 19.957 18.09h0.42578c10.16 0 18.637-7.2109 20.234-17.289l21.758-136.96 16.168 76.73c2.0234 9.5977 10.266 16.277 20.066 16.277h0.125c9.8555-0.054687 18.078-6.8477 19.996-16.516l24.461-123.3 24.523 164.82c1.5117 10.168 9.7539 17.367 20.035 17.488 10.16 0.023438 18.691-6.8672 20.453-16.996l16.273-93.766 2.1523 6.1953c2.7539 7.9531 10.258 13.293 18.676 13.293l33.758 0.007812c6.1836 0 11.199-5.0195 11.199-11.199 0-6.1836-5.0195-11.191-11.199-11.191z"/>
 </g>
</svg>
