<?xml version="1.0" encoding="UTF-8"?>
<svg viewBox="105.86 34.063 475 475" xmlns="http://www.w3.org/2000/svg">
 <g transform="translate(690 0) scale(-1 1)">
  <path d="m345.02 41.719c-45.758 0-90.484 13.57-128.53 38.992-38.047 25.422-67.695 61.555-85.203 103.83-17.508 42.277-22.086 88.793-13.156 133.67 8.9297 44.879 30.969 86.098 63.328 118.45 32.359 32.348 73.582 54.379 118.46 63.297 44.879 8.9219 91.395 4.332 133.66-13.188 42.27-17.516 78.398-47.176 103.81-85.227 25.414-38.051 38.973-82.781 38.961-128.54 0-40.605-10.691-80.492-30.996-115.66-20.305-35.164-49.508-64.359-84.676-84.656-35.168-20.297-75.059-30.977-115.66-30.969zm160.95 236.1-148.46 90.551c-1.7266 1.0508-3.8828 1.0898-5.6445 0.10547s-2.8594-2.8438-2.8672-4.8633v-56.84c0.011718-2.0312-1.0742-3.9102-2.8438-4.9102-1.7656-0.99609-3.9336-0.96484-5.668 0.09375l-108.86 66.414c-1.7266 1.0508-3.8828 1.0898-5.6445 0.10547-1.7656-0.98438-2.8594-2.8438-2.8672-4.8633v-181.16c-0.011719-2.0312 1.0742-3.9102 2.8398-4.9062 1.7695-1 3.9375-0.96484 5.6719 0.089843l108.86 66.414c1.7266 1.0508 3.8828 1.0898 5.6445 0.10547s2.8594-2.8438 2.8672-4.8633v-56.84c-0.011719-2.0312 1.0742-3.9102 2.8438-4.9062 1.7656-1 3.9336-0.96484 5.668 0.089843l148.46 90.605c1.6719 1.0156 2.6953 2.832 2.6953 4.7891 0 1.957-1.0234 3.7734-2.6953 4.7891z"/>
 </g>
</svg>
