<?xml version="1.0" encoding="UTF-8"?>
<svg viewBox="250 20 200 520" xmlns="http://www.w3.org/2000/svg">
 <path d="m420 280c0 18.566-7.375 36.371-20.504 49.496-13.125 13.129-30.93 20.504-49.496 20.504s-36.371-7.375-49.496-20.504c-13.129-13.125-20.504-30.93-20.504-49.496s7.375-36.371 20.504-49.496c13.125-13.129 30.93-20.504 49.496-20.504s36.371 7.375 49.496 20.504c13.129 13.125 20.504 30.93 20.504 49.496zm-70-245c-18.566 0-36.371 7.375-49.496 20.504-13.129 13.125-20.504 30.93-20.504 49.496s7.375 36.371 20.504 49.496c13.125 13.129 30.93 20.504 49.496 20.504s36.371-7.375 49.496-20.504c13.129-13.125 20.504-30.93 20.504-49.496s-7.375-36.371-20.504-49.496c-13.125-13.129-30.93-20.504-49.496-20.504zm0 350c-18.566 0-36.371 7.375-49.496 20.504-13.129 13.125-20.504 30.93-20.504 49.496s7.375 36.371 20.504 49.496c13.125 13.129 30.93 20.504 49.496 20.504s36.371-7.375 49.496-20.504c13.129-13.125 20.504-30.93 20.504-49.496s-7.375-36.371-20.504-49.496c-13.125-13.129-30.93-20.504-49.496-20.504z"/>
</svg>
