<?xml version="1.0" encoding="UTF-8"?>
<svg viewBox="70 0 560 560" xmlns="http://www.w3.org/2000/svg">
 <g>
  <circle cx="350" cy="280" r="270" fill="white"/>
  <path d="m319.31 1.668c-71.469 8.3125-137.83 43.758-183.48 98.305-71.031 84.742-85.762 201.57-38.215 300.9 28.148 58.488 73.074 103.41 131.41 131.41 99.473 47.695 216.3 32.965 301.05-38.066 62.863-52.508 99.91-132.14 99.91-214.12 0-81.969-37.047-161.61-99.91-214.12-58.344-49.008-136.67-72.781-210.76-64.32zm183.78 251.75v136.81l-4.2305 7.293c-5.3984 9.3359-17.941 21.293-27.566 26.109-28.734 14.586-63.008 8.8984-84.16-13.855-10.648-11.523-14.441-21.586-14.441-37.777s3.793-26.254 14.441-37.777c14.586-15.754 33.984-23.047 57.32-21.586l13.418 0.875v-129.66h-156.06v228.41l-3.6445 7.4375c-2.043 4.082-7.293 10.648-11.523 14.73-28.148 26.547-73.219 25.379-99.328-2.7695-10.648-11.523-14.441-21.586-14.441-37.777s3.793-26.254 14.441-37.777c16.043-17.211 43.172-25.816 65.344-20.711l5.3984 1.3125v-219.95h245.04v136.67z"/>
 </g>
</svg>
