<svg viewBox="108.75 42.23 475 475" xmlns="http://www.w3.org/2000/svg">
 <g>
  <path d="m347.93 49.895c-61.355 0-120.2 24.375-163.58 67.758-43.383 43.383-67.754 102.23-67.754 163.58 0 61.355 24.371 120.2 67.754 163.58 43.387 43.383 102.23 67.754 163.58 67.754 61.352 0 120.2-24.371 163.58-67.754 43.383-43.387 67.758-102.23 67.758-163.58 0-61.352-24.375-120.2-67.758-163.58-43.383-43.383-102.23-67.758-163.58-67.758zm-35.059 338.58h-47.543v-214.48h47.543zm109.48 0h-47.543v-214.48h47.543z"/>
 </g>
</svg>
