<svg viewBox="50 -20 600 600" xmlns="http://www.w3.org/2000/svg">
 <g>
  <path d="m464.8 84h-299.6l36.398-36.398c11.199-11.199 11.199-28 0-39.199-11.199-11.199-28-11.199-39.199 0l-84 84c-11.199 11.199-11.199 28 0 39.199l84 84c11.199 11.199 28 11.199 39.199 0 11.199-11.199 11.199-28 0-39.199l-36.398-36.402h299.6c61.598 0 109.2 47.602 109.2 109.2v30.801c0 16.801 11.199 28 28 28s28-11.199 28-28v-30.801c0-92.398-72.801-165.2-165.2-165.2z"/>
  <path d="m621.6 372.4-84-84c-11.199-11.199-28-11.199-39.199 0-11.199 11.199-11.199 28 0 39.199l36.398 36.398h-162.4c-19.602-64.395-78.402-112-148.4-112-33.602 0-67.199 11.199-92.398 30.801-5.6016-19.602-5.6016-36.402-5.6016-58.801 0-16.801-11.199-28-28-28s-28 11.199-28 28c0 36.398-2.8008 67.199 19.602 106.4-14 22.402-19.602 47.602-19.602 75.602 0 84 70 154 154 154 81.199 0 145.6-61.602 154-140h156.8l-36.398 36.398c-11.199 11.199-11.199 28 0 39.199 11.199 11.199 28 11.199 39.199 0l84-84c11.199-11.199 11.199-27.996 0-39.199zm-397.6 131.6c-53.199 0-98-44.801-98-98s44.801-98 98-98c50.398 0 92.398 36.398 98 86.801 5.6016 56-39.199 109.2-98 109.2z"/>
  <path d="m243.6 336h-39.203c-16.801 0-28 11.199-28 28s11.199 28 28 28h14v56c0 16.801 11.199 28 28 28 16.801 0 28-11.199 28-28v-84c-2.7969-16.801-14-28-30.797-28z"/>
 </g>
</svg>
