<svg viewBox="50 -20 600 600" xmlns="http://www.w3.org/2000/svg">
 <g fill="#0004">
  <path d="m464.8 84h-299.6l36.398-36.398c11.199-11.199 11.199-28 0-39.199-11.199-11.199-28-11.199-39.199 0l-84 84c-11.199 11.199-11.199 28 0 39.199l84 84c11.199 11.199 28 11.199 39.199 0 11.199-11.199 11.199-28 0-39.199l-36.398-36.402h299.6c61.598 0 109.2 47.602 109.2 109.2v30.801c0 16.801 11.199 28 28 28s28-11.199 28-28v-30.801c0-92.398-72.801-165.2-165.2-165.2z"/>
  <path d="m621.6 428.4-84-84c-11.199-11.199-28-11.199-39.199 0-11.199 11.199-11.199 28 0 39.199l36.398 36.398-299.6 0.003906c-61.598 0-109.2-47.602-109.2-109.2v-30.801c0-16.801-11.199-28-28-28s-28 11.199-28 28v30.801c0 92.398 72.801 165.2 165.2 165.2h299.6l-36.398 36.398c-11.199 11.199-11.199 28 0 39.199 11.199 11.199 28 11.199 39.199 0l84-84c5.6016-5.6016 8.3984-14 8.3984-19.602 0-8.3945-2.8008-13.996-8.3984-19.598z"/>
 </g>
</svg>
