<?xml version="1.0" encoding="UTF-8"?>
<svg viewBox="50 -20 600 600" xmlns="http://www.w3.org/2000/svg">
 <path d="m621.6 400.4-84-84c-11.199-11.199-28-11.199-39.199 0-11.199 11.199-11.199 28 0 39.199l36.398 36.398c-89.602 0-159.6-33.602-201.6-112 39.199-72.801 103.6-112 201.6-112l-36.398 36.398c-11.199 11.199-11.199 28 0 39.199 11.199 11.199 28 11.199 39.199 0l84-84c11.199-11.199 11.199-28 0-39.199l-84-84c-11.199-11.199-28-11.199-39.199 0-11.199 11.199-11.199 28 0 39.199l36.398 36.406c-112 0-187.6 44.801-238 117.6-50.402-56-120.4-89.602-198.8-89.602-16.801 0-28 11.199-28 28s11.199 28 28 28c67.199 0 128.8 30.801 168 84-39.199 53.199-100.8 84-168 84-16.801 0-28 11.199-28 28s11.199 28 28 28c78.398 0 148.4-33.602 198.8-89.602 50.398 72.801 126 117.6 238 117.6l-36.398 36.398c-11.199 11.199-11.199 28 0 39.199 11.199 11.199 28 11.199 39.199 0l84-84c11.199-11.199 11.199-27.996 0-39.199z"/>
</svg>
