<svg viewBox="120 30 460 500" xmlns="http://www.w3.org/2000/svg">
 <g>
  <path d="m367.5 350c0 9.6641-7.8359 17.5-17.5 17.5s-17.5-7.8359-17.5-17.5 7.8359-17.5 17.5-17.5 17.5 7.8359 17.5 17.5"/>
  <path d="m350 262.5c-23.207 0-45.461 9.2188-61.871 25.629s-25.629 38.664-25.629 61.871 9.2188 45.461 25.629 61.871 38.664 25.629 61.871 25.629 45.461-9.2188 61.871-25.629 25.629-38.664 25.629-61.871-9.2188-45.461-25.629-61.871-38.664-25.629-61.871-25.629zm0 140c-13.926 0-27.277-5.5312-37.125-15.375-9.8438-9.8477-15.375-23.199-15.375-37.125s5.5312-27.277 15.375-37.125c9.8477-9.8438 23.199-15.375 37.125-15.375s27.277 5.5312 37.125 15.375c9.8438 9.8477 15.375 23.199 15.375 37.125s-5.5312 27.277-15.375 37.125c-9.8477 9.8438-23.199 15.375-37.125 15.375z"/>
  <path d="m507.5 35h-315c-13.926 0-27.277 5.5312-37.125 15.375-9.8438 9.8477-15.375 23.199-15.375 37.125v385c0 13.926 5.5312 27.277 15.375 37.125 9.8477 9.8438 23.199 15.375 37.125 15.375h315c13.926 0 27.277-5.5312 37.125-15.375 9.8438-9.8477 15.375-23.199 15.375-37.125v-385c0-13.926-5.5312-27.277-15.375-37.125-9.8477-9.8438-23.199-15.375-37.125-15.375zm-157.5 437.5c-36.793 0.003906-71.641-16.535-94.906-45.039-23.266-28.504-32.488-65.957-25.117-102.01 7.375-36.047 30.559-66.871 63.148-83.953-18.234-15.598-29.262-37.996-30.508-61.957-1.2422-23.961 7.4062-47.383 23.926-64.785 16.523-17.398 39.465-27.254 63.457-27.254s46.934 9.8555 63.457 27.254c16.52 17.402 25.168 40.824 23.926 64.785-1.2461 23.961-12.273 46.359-30.508 61.957 32.59 17.082 55.773 47.906 63.148 83.953 7.3711 36.051-1.8516 73.504-25.117 102.01-23.266 28.504-58.113 45.043-94.906 45.039zm0-350c-13.926 0-27.277 5.5312-37.125 15.375-9.8438 9.8477-15.375 23.199-15.375 37.125s5.5312 27.277 15.375 37.125c9.8477 9.8438 23.199 15.375 37.125 15.375s27.277-5.5312 37.125-15.375c9.8438-9.8477 15.375-23.199 15.375-37.125s-5.5312-27.277-15.375-37.125c-9.8477-9.8438-23.199-15.375-37.125-15.375z"/>
 </g>
</svg>
