<svg viewBox="140 0 400 565" xmlns="http://www.w3.org/2000/svg">
 <g transform="translate(690 0) scale(-1 1)">
  <path d="m174.52 528.59v-496.08c0-41.883 116.61-41.883 116.61 0v496.08c0.003906 41.883-116.61 41.883-116.61 0zm305.67-288.3c-24.406 0-44.195-19.789-44.195-44.203 0-24.406 19.793-44.195 44.195-44.195 24.41 0 44.203 19.789 44.203 44.195 0 24.41-19.793 44.203-44.203 44.203zm0 168.93c-24.406 0-44.195-19.789-44.195-44.203 0-24.406 19.793-44.195 44.195-44.195 24.41 0 44.203 19.793 44.203 44.195 0 24.418-19.793 44.203-44.203 44.203zm-149.18 119.37v-496.08c0-38.34 65.43-38.27 65.43 0v496.08c0 38.27-65.43 38.348-65.43 0z" fill-rule="evenodd"/>
 </g>
</svg>
