<svg viewBox="100 80 500 400" xmlns="http://www.w3.org/2000/svg">
 <g>
  <path d="m365.68 134.4v291.2c0 26.32-31.359 40.32-50.961 22.398l-97.438-88.477h-80.082c-16.801 0-30.238-13.441-30.238-30.238v-98.562c0-16.801 13.441-30.238 30.238-30.238h80.078l97.441-88.48c19.602-17.922 50.961-3.9219 50.961 22.398zm136.08 5.6016c75.602 81.199 75.602 199.36 0 280.56-13.441 14 7.8398 35.84 21.281 21.281 87.359-93.52 87.359-230.16 0-323.68-13.441-14-34.723 7.2812-21.281 21.84zm-47.602 39.199c54.32 58.238 54.32 142.8 0 201.04-13.441 14.559 8.3984 35.84 21.281 21.281 65.52-70.559 65.52-173.6 0-244.16-12.883-14-34.16 7.8398-21.281 21.84zm-47.039 39.762c33.039 35.84 33.039 86.238 0 121.52-13.441 14.559 8.3984 35.84 21.281 21.281 44.238-48.16 44.238-116.48 0-164.64-12.883-14-34.723 7.8398-21.281 21.84z"/>
 </g>
</svg>
